HIERARCHY
ROOT root
{
	OFFSET 0.000000 0.000000 0.000000
	CHANNELS 6 Xposition Yposition Zposition Zrotation Yrotation Xrotation
	JOINT lhip
	{
		OFFSET 0.058581 -0.082280 -0.017664
		CHANNELS 3 Zrotation Yrotation Xrotation
		JOINT lknee
		{
			OFFSET 0.043451 -0.386469 0.008037
			CHANNELS 3 Zrotation Yrotation Xrotation
			JOINT lankle
			{
				OFFSET -0.014790 -0.426874 -0.037428
				CHANNELS 3 Zrotation Yrotation Xrotation
				JOINT ltoe
				{
					OFFSET 0.041054 -0.060286 0.122042
					CHANNELS 3 Zrotation Yrotation Xrotation
					End Site
					{
						OFFSET 0.000000 0.000000 0.000000
					}
				}
			}
		}
	}
	JOINT rhip
	{
		OFFSET -0.060310 -0.090513 -0.013543
		CHANNELS 3 Zrotation Yrotation Xrotation
		JOINT rknee
		{
			OFFSET -0.043257 -0.383688 -0.004843
			CHANNELS 3 Zrotation Yrotation Xrotation
			JOINT rankle
			{
				OFFSET 0.019056 -0.420046 -0.034562
				CHANNELS 3 Zrotation Yrotation Xrotation
				JOINT rtoe
				{
					OFFSET -0.034840 -0.062106 0.130323
					CHANNELS 3 Zrotation Yrotation Xrotation
					End Site
					{
						OFFSET 0.000000 0.000000 0.000000
					}
				}
			}
		}
	}
	JOINT lowerback
	{
		OFFSET 0.004439 0.124404 -0.038385
		CHANNELS 3 Zrotation Yrotation Xrotation
		JOINT upperback
		{
			OFFSET 0.004488 0.137956 0.026820
			CHANNELS 3 Zrotation Yrotation Xrotation
			JOINT chest
			{
				OFFSET -0.002265 0.056032 0.002855
				CHANNELS 3 Zrotation Yrotation Xrotation
				JOINT lowerneck
				{
					OFFSET -0.013390 0.211636 -0.033468
					CHANNELS 3 Zrotation Yrotation Xrotation
					JOINT upperneck
					{
						OFFSET 0.010113 0.088937 0.050410
						CHANNELS 3 Zrotation Yrotation Xrotation
						End Site
						{
							OFFSET 0.000000 0.000000 0.000000
						}
					}
				}
				JOINT lclavicle
				{
					OFFSET 0.071702 0.114000 -0.018898
					CHANNELS 3 Zrotation Yrotation Xrotation
					JOINT lshoulder
					{
						OFFSET 0.122921 0.045205 -0.019046
						CHANNELS 3 Zrotation Yrotation Xrotation
						JOINT lelbow
						{
							OFFSET 0.255332 -0.015649 -0.022946
							CHANNELS 3 Zrotation Yrotation Xrotation
							JOINT lwrist
							{
								OFFSET 0.265709 0.012698 -0.007375
								CHANNELS 3 Zrotation Yrotation Xrotation
								End Site
								{
									OFFSET 0.000000 0.000000 0.000000
								}
							}
						}
					}
				}
				JOINT rclavicle
				{
					OFFSET -0.082954 0.112472 -0.023707
					CHANNELS 3 Zrotation Yrotation Xrotation
					JOINT rshoulder
					{
						OFFSET -0.113228 0.046853 -0.008472
						CHANNELS 3 Zrotation Yrotation Xrotation
						JOINT relbow
						{
							OFFSET -0.260127 -0.014369 -0.031269
							CHANNELS 3 Zrotation Yrotation Xrotation
							JOINT rwrist
							{
								OFFSET -0.269108 0.006794 -0.006027
								CHANNELS 3 Zrotation Yrotation Xrotation
								End Site
								{
									OFFSET 0.000000 0.000000 0.000000
								}
							}
						}
					}
				}
			}
		}
	}
}
MOTION
Frames: 5
Frame Time: 0.033333
0.304054 0.185115 0.974702 69.208040 -5.117933 94.299191 1.516852 9.796525 -10.689333 -2.795540 13.905475 15.432321 2.950258 6.273357 -7.976819 0.000000 -0.000000 0.000000 -11.418048 0.903039 -22.071847 -2.948306 -0.759223 23.231691 6.600984 6.730690 -7.328905 0.000000 -0.000000 0.000000 -0.870557 -1.681990 33.215928 5.694295 -7.385579 30.282328 3.706374 2.864302 -7.283965 -9.856836 -9.340798 42.627688 15.785101 -6.602430 -13.129112 -14.587054 -30.739754 8.896713 -70.380387 -36.188193 40.623376 174.512038 -55.691192 -147.488060 57.608955 -11.497437 -12.575974 13.082007 30.611674 12.074302 62.319190 28.517581 24.860007 173.050844 36.145566 -171.770355 -76.947526 19.840731 -26.482379 
0.304948 0.185091 0.974847 69.329812 -5.101949 94.438481 1.458560 9.777944 -10.713495 -2.750867 13.910071 15.286174 2.925564 6.156019 -7.907104 0.000000 -0.000000 0.000000 -11.403792 0.862839 -22.056503 -2.982363 -0.727888 23.126048 6.637823 6.652410 -7.270161 0.000000 -0.000000 0.000000 -0.752079 -1.741035 33.342417 5.653241 -7.292620 29.937608 3.622038 2.866857 -7.299862 -11.117914 -9.217522 42.830369 15.199023 -7.549092 -12.924777 -14.408752 -30.830902 8.889472 -70.436726 -36.263880 40.991543 174.446472 -55.803770 -147.442336 58.805150 -11.230166 -12.807744 13.358048 30.629019 12.016115 62.171124 28.537164 25.018094 172.890719 36.016931 -171.953879 -77.222981 20.004934 -26.376131 
0.305661 0.185045 0.975179 69.613746 -5.059416 94.490347 1.495468 9.831391 -10.679092 -2.850692 13.738912 15.120861 2.922153 6.106641 -7.807482 0.000000 -0.000000 0.000000 -11.365170 0.772597 -21.919580 -2.987574 -0.734633 23.017644 6.653655 6.481085 -7.261257 0.000000 -0.000000 0.000000 -0.629547 -1.706451 33.408303 5.681939 -7.164773 29.738989 3.634559 2.899776 -7.225764 -11.344584 -9.046943 42.683019 14.828456 -7.603428 -12.647357 -14.402978 -30.951327 8.840776 -70.225813 -36.272918 40.986226 174.507235 -55.643136 -147.436457 59.079881 -10.993006 -12.658929 13.324844 30.706944 11.894355 62.159735 28.526112 25.047133 172.812971 36.164736 -171.779172 -77.191763 20.158193 -26.521115 
0.306399 0.184912 0.975717 70.046712 -5.082826 94.428183 1.481721 9.778027 -10.568800 -2.931328 13.490054 14.992538 2.919801 6.103491 -7.689779 0.000000 -0.000000 0.000000 -11.395885 0.667173 -21.666681 -3.021271 -0.839312 22.988189 6.624574 6.335244 -7.315641 0.000000 -0.000000 0.000000 -0.540173 -1.543786 33.473605 5.753906 -7.055801 29.730016 3.739931 2.963549 -7.264786 -10.459104 -8.721206 42.425327 14.775213 -6.619981 -12.375623 -14.520696 -31.007976 8.944648 -69.823962 -36.034418 40.581260 174.690499 -55.150503 -147.543808 58.188381 -11.109069 -12.457676 13.292723 30.851345 12.068445 62.182574 28.654600 25.005491 172.734505 36.471718 -171.387232 -76.956330 20.427784 -26.729109 
0.307158 0.184843 0.976057 70.623425 -5.094087 94.438989 1.445517 9.704395 -10.610003 -2.985842 13.084190 14.907252 2.975697 6.117916 -7.585849 0.000000 -0.000000 0.000000 -11.437218 0.527785 -21.497729 -3.057722 -1.047932 22.984223 6.571892 6.135123 -7.393704 0.000000 -0.000000 0.000000 -0.451471 -1.229444 33.291426 6.005970 -6.927976 29.985126 3.966986 3.135525 -7.572203 -8.798612 -8.457536 42.068873 15.215332 -4.964125 -11.921830 -14.871910 -31.195260 9.391343 -69.115875 -35.972303 39.808260 175.182678 -54.711968 -147.838078 57.651690 -11.199368 -12.235387 13.158237 31.066512 12.605639 62.070929 28.823700 24.407787 172.720564 36.986974 -171.011061 -76.713646 20.532898 -27.557600 
